<?xml version="1.0" encoding="iso-8859-1"?>
<!-- Generator: Adobe Illustrator 16.0.0, SVG Export Plug-In . SVG Version: 6.00 Build 0)  -->
<!DOCTYPE svg PUBLIC "-//W3C//DTD SVG 1.1//EN" "http://www.w3.org/Graphics/SVG/1.1/DTD/svg11.dtd">
<svg xmlns="http://www.w3.org/2000/svg" xmlns:xlink="http://www.w3.org/1999/xlink" version="1.1" id="Capa_1" x="0px" y="0px" width="512px" height="512px" viewBox="0 0 959.415 959.415" style="enable-background:new 0 0 959.415 959.415;" xml:space="preserve">
<g>
	<g>
		<path d="M75.194,458.44c28.9-1,52-6.899,70.5-15c20.1,12.8,43.9,20.2,69.5,20.2s49.4-7.4,69.5-20.2c18.4,8.2,41.5,14,70.5,15    c7.1,0.3,11.899-7.3,8.6-13.6c-7-13.5-15.7-37-15.7-70.6c0-56.2-1.899-189.8-132.9-189.8c-131,0-132.9,133.6-132.9,189.8    c0,33.5-8.7,57-15.7,70.6C63.294,451.14,68.094,458.74,75.194,458.44z" fill="#FFFFFF"/>
		<path d="M35.094,735.439h287.4l1.1-6.399c5.5-31.801,22.101-60.7,46.7-81.5c9.3-7.801,19.5-14.301,30.4-19.4    c-4.2-3.2-8.101-6.7-11.9-10.5c-23.5-23.5-36.4-54.7-36.4-87.9c0-0.3,0-0.699,0-1c-29.899-22.6-67.1-35.8-107-35.8h-60.5    c-86.4,0-160.3,62.2-175,147.4l-9.4,54.2C-3.105,715.939,13.395,735.439,35.094,735.439z" fill="#FFFFFF"/>
		<path d="M949.495,640.34c-14.7-85.2-88.601-147.4-175-147.4h-60.5c-42.601,0-82.101,15.101-113,40.601    c-1.101,38.3-19.9,72.5-48.4,94.6c10.9,5.1,21.2,11.6,30.601,19.5c24.699,20.8,41.199,49.7,46.699,81.5l1.101,6.4h293.399    c21.7,0,38.2-19.601,34.5-40.9L949.495,640.34z" fill="#FFFFFF"/>
		<path d="M600.595,735.439l-0.2-1.3c-6.3-36.8-31-66.4-63.6-80.3c-12.9-5.5-27-8.5-41.7-8.5h-36.4c-12.601,0-24.801,2.2-36.101,6.3    c-35.399,12.7-62.6,43.6-69.3,82.5l-0.2,1.3l-4.6,26.7c-2.601,15.3,9.1,29.2,24.6,29.2h207.601c15.5,0,27.3-14,24.6-29.2    L600.595,735.439z" fill="#FFFFFF"/>
		<path d="M403.195,588.739c17.3,21.5,43.8,35.301,73.6,35.301c0.4,0,0.9,0,1.3,0c51.5-0.7,93.3-43.4,93-94.9    c-0.2-34.7-19.2-65-47.3-81.2c-14.9-8.6-27.4-20.8-35.8-35.7c-3.2-5.6-6.101-12-8.401-18.899c-0.5-1.4-1.7-2.101-2.899-2.101    c-1.2,0-2.4,0.7-2.9,2.101c-2.3,6.899-5.2,13.2-8.4,18.899c-8.5,15.101-21.199,27.301-36.199,36    c-28.101,16.301-46.9,46.7-46.9,81.6c0,13.6,2.9,26.5,8,38.2C393.794,575.439,398.094,582.439,403.195,588.739z" fill="#FFFFFF"/>
		<path d="M740.995,461.24c72.7,0,131.6-58.899,131.6-131.6v-129.7c0-21-20-36.3-40.3-30.7l-160.3,44.2    c-37,10.2-62.601,43.8-62.601,82.2v34C609.395,402.34,668.295,461.24,740.995,461.24z" fill="#FFFFFF"/>
	</g>
</g>
<g>
</g>
<g>
</g>
<g>
</g>
<g>
</g>
<g>
</g>
<g>
</g>
<g>
</g>
<g>
</g>
<g>
</g>
<g>
</g>
<g>
</g>
<g>
</g>
<g>
</g>
<g>
</g>
<g>
</g>
</svg>
