<?xml version="1.0" encoding="iso-8859-1"?>
<!-- Generator: Adobe Illustrator 16.0.0, SVG Export Plug-In . SVG Version: 6.00 Build 0)  -->
<!DOCTYPE svg PUBLIC "-//W3C//DTD SVG 1.1//EN" "http://www.w3.org/Graphics/SVG/1.1/DTD/svg11.dtd">
<svg xmlns="http://www.w3.org/2000/svg" xmlns:xlink="http://www.w3.org/1999/xlink" version="1.1" id="Capa_1" x="0px" y="0px" width="512px" height="512px" viewBox="0 0 503.847 503.847" style="enable-background:new 0 0 503.847 503.847;" xml:space="preserve">
<g>
	<g>
		<path d="M103.547,103.436c28.558,0,51.715-23.156,51.715-51.718C155.262,23.153,132.105,0,103.547,0    C74.982,0,51.83,23.152,51.83,51.718C51.829,80.28,74.982,103.436,103.547,103.436z" fill="#FFFFFF"/>
		<path d="M400.747,118.051c0.376,0.008,0.752,0.012,1.127,0.012c18.02,0,35.058-9.75,44.219-25.264    c9.29-15.733,9.394-35.819,0.265-51.647c-8.991-15.594-25.917-25.522-43.92-25.716c-18.033-0.194-35.186,9.373-44.513,24.809    c-9.45,15.637-9.761,35.72-0.797,51.642C365.952,107.559,382.761,117.664,400.747,118.051z" fill="#FFFFFF"/>
		<path d="M498.282,270.474c0.003,0.093,0.003,0.046-0.003-0.292c-0.041-1.54-0.036-1.25-0.023-0.697    c-0.341-12.033-1.179-24.021-3.016-35.929c-1.979-12.832-5.172-25.453-9.58-37.662c-8.343-23.099-22.681-45.266-43.003-59.531    c-4.214-2.988-8.784-5.375-13.312-7.869c-17.333-9.547-37.083-9.547-54.589-0.231c-21.516,11.452-38.917,29.724-50.131,51.018    c-5.997,11.385-10.272,23.512-13.609,35.912c-3.33,12.372-5.056,25.072-6.327,37.795c-1.143,11.437-1.077,22.965-0.97,34.44    c0.011,0.832,0.106,1.646,0.25,2.445c-3.478,2.024-7.211,3.519-11.401,4.083c-7.051,0.949-14.787-0.928-20.056-5.553    c-12.614-11.072-28.902-10.197-41.758,0.063c-5.452,4.353-12.953,6.433-19.967,5.488c-5.038-0.679-9.423-2.7-13.489-5.378    c0.572-1.307,0.98-2.711,1.173-4.196l0.016-0.115c0,0,0.375-2.911,0.902-8.043c0.519-5.133,1.177-12.493,1.502-21.44    c0.318-8.945,0.318-19.482-0.624-30.915c-0.947-11.423-2.827-23.762-6.303-36.072c-3.443-12.296-8.554-24.561-15.299-35.396    c-3.363-5.414-7.105-10.462-11.077-14.986c-3.968-4.528-8.16-8.529-12.335-11.941c-8.364-6.849-16.583-11.26-22.879-13.87    c-3.162-1.314-5.842-2.197-7.991-2.788c-12.688-3.469-27.115-2.971-39.203-0.705c-0.958,0.187-1.882,0.407-2.97,0.705    c-2.147,0.591-4.828,1.474-7.99,2.788c-6.296,2.61-14.516,7.021-22.879,13.871c-4.176,3.412-8.366,7.412-12.335,11.941    c-3.971,4.524-7.713,9.572-11.075,14.986c-6.745,10.835-11.857,23.1-15.299,35.396c-3.477,12.311-5.355,24.649-6.303,36.071    c-0.942,11.433-0.941,21.969-0.623,30.915c0.325,8.947,0.984,16.309,1.501,21.44c0.527,5.132,0.904,8.043,0.904,8.043l0.022,0.179    c1.035,7.815,7.898,13.679,15.922,13.318c8.48-0.38,15.045-7.562,14.666-16.042c0,0-0.122-2.707-0.21-7.423    c-0.081-4.714-0.115-11.439,0.264-19.411c0.381-7.964,1.169-17.182,2.778-26.746c1.605-9.555,4.028-19.461,7.489-28.625    c1.943-5.201,4.233-10.131,6.764-14.665l-11.32,93.46c-0.524,4.557-0.576,9.551,0,14.307c1.182,9.754,4.675,18.66,9.845,26.261    l7.962,167.901c0.461,9.11,7.79,16.629,17.09,17.047c9.883,0.442,18.253-7.209,18.697-17.092l5.686-126.83l5.912,126.858    c0.454,9.113,7.775,16.637,17.076,17.062c9.882,0.453,18.259-7.193,18.711-17.076l7.693-168.491    c7.521-11.366,11.208-25.354,9.44-39.946l-11.184-92.338c2.284,4.222,4.356,8.771,6.14,13.543    c3.46,9.163,5.883,19.07,7.488,28.625c1.608,9.563,2.396,18.781,2.778,26.746c0.38,7.971,0.345,14.697,0.265,19.411    c-0.088,4.716-0.21,7.423-0.21,7.423c-0.305,7.27,4.567,13.797,11.578,15.574c5.703,6.244,11.946,11.561,19.667,15.176    c7.032,3.297,14.95,4.676,22.683,4.248v25.023l0.085,4.089l-16.987,76.407c-0.35,1.788,0.113,3.622,1.27,5.027    c1.159,1.409,2.869,2.217,4.691,2.217h12.674l2.923,64.447c0.267,5.478,4.937,9.937,10.425,9.913    c5.423-0.021,10.019-4.403,10.314-9.813l3.54-64.547h1.394l2.923,64.447c0.269,5.478,4.937,9.937,10.425,9.913    c5.424-0.021,10.02-4.403,10.314-9.813l3.54-64.547h12.538c1.818,0,3.525-0.806,4.685-2.21c1.159-1.403,1.625-3.23,1.272-5.055    l-16.385-74.932l0.086-4.632v-25.938c7.604,0.427,15.404-0.899,22.35-4.082c5.606-2.567,10.438-6.056,14.85-10.132    c7.888,0.116,14.763-6.062,15.414-13.966c0.314-3.81,0.522-7.644,0.963-11.438c0.688-5.925,1.473-11.812,2.393-17.705    c1.929-12.356,5.261-24.561,9.628-36.268c1.092-2.927,2.292-5.841,3.617-8.671l0.536,36.234l-29.21,131.386    c-0.592,3.021,0.188,6.117,2.143,8.492c1.958,2.377,4.845,3.739,7.922,3.739h23.14l4.481,92.618    c0.482,9.291,8.368,16.871,17.681,16.918c9.259,0.046,17.188-7.342,17.812-16.575c0.005-0.095,0.011-0.188,0.016-0.281l4.8-92.68    h4.168l4.481,92.618c0.482,9.291,8.369,16.871,17.681,16.918c9.258,0.046,17.188-7.342,17.811-16.575    c0.006-0.095,0.012-0.188,0.017-0.282l4.799-92.679h22.364c3.07,0,5.954-1.357,7.91-3.728c1.955-2.37,2.743-5.459,2.146-8.534    l-28.855-131.978l0.412-35.663c4.974,11.813,8.285,26.446,10.691,39.015c2.078,10.846,3.173,21.794,4.081,32.789    c0.022,0.268,0.044,0.535,0.066,0.803c0.691,8.033,7.816,14.25,15.859,13.9c7.979-0.348,14.478-7.084,14.561-15.065    C498.312,280.722,498.379,275.6,498.282,270.474z" fill="#FFFFFF"/>
		<path d="M241.025,275.105c3.393,1.286,7.014,1.942,10.643,1.942c9.953,0,19.433-5.086,24.953-13.365    c5.601-8.397,6.565-19.363,2.518-28.611c-3.942-9.014-12.307-15.678-21.983-17.468c-9.893-1.83-20.247,1.515-27.188,8.795    c-6.948,7.291-9.791,17.832-7.462,27.632C224.777,263.593,231.839,271.613,241.025,275.105z" fill="#FFFFFF"/>
	</g>
</g>
<g>
</g>
<g>
</g>
<g>
</g>
<g>
</g>
<g>
</g>
<g>
</g>
<g>
</g>
<g>
</g>
<g>
</g>
<g>
</g>
<g>
</g>
<g>
</g>
<g>
</g>
<g>
</g>
<g>
</g>
</svg>
